<svg class="sprite-icons" xmlns="http://www.w3.org/2000/svg">

    <symbol id="icon-send" viewBox="0 0 16 8">
        <!-- width="16" height="8" -->
        <title>Send</title>
        <path d="M12.01 3H0V5H12.01V8L16 4L12.01 0V3Z" fill="#3A3FB0"/>
    </symbol>

    <symbol id="video-play" viewBox="0 0 18 26">
        <!-- width="18" height="26" -->
        <title>Video Play</title>
            <path fill-rule="evenodd" clip-rule="evenodd" d="M15.9215 11.3862L2.60653 1.20517C2.16853 0.870172 1.54053 0.953172 1.20553 1.39217C1.07153 1.56717 0.999526 1.78017 0.999526 2.00017V23.9512C0.999526 24.5042 1.44753 24.9512 1.99953 24.9512C2.21953 24.9512 2.43253 24.8792 2.60653 24.7462L15.9215 14.5642C16.7995 13.8932 16.9665 12.6382 16.2955 11.7602C16.1885 11.6202 16.0625 11.4942 15.9215 11.3862Z" fill="#00BFBF" stroke="#00BFBF"/>
    </symbol>

    <symbol id="rating-star" viewBox="0 0 18 17">
        <!-- width="18" height="17" -->
        <title>Star</title>
        <path d="M9.00008 13.3916L14.1501 16.5L12.7834 10.6416L17.3334 6.69996L11.3417 6.19163L9.00008 0.666626L6.65841 6.19163L0.666748 6.69996L5.21675 10.6416L3.85008 16.5L9.00008 13.3916Z" fill="#FFD011"/>
    </symbol>

</svg>